<?xml version="1.0" encoding="UTF-8"?>
<svg height="600" width="800" xmlns="http://www.w3.org/2000/svg" xmlns:xlink="http://www.w3.org/1999/xlink">
    <g id="Notes" font-family="LucidaGrande, 'Lucida Grande', sans-serif" font-size="13">
        <rect fill="white" height="600.0" width="800.0" x="0.0" y="0.0" />
        <g font-size="13">
            <text x="18.0" y="176.0">Small</text>
            <text x="18.0" y="376.0">Medium</text>
            <text x="18.0" y="576.0">Large</text>
        </g>
        <g font-size="9">
            <text x="250.0" y="30.0">Ultralight</text>
            <text x="450.0" y="30.0">Regular</text>
            <text x="650.0" y="30.0">Black</text>
            <text id="template-version" fill="#505050" text-anchor="end" x="785.0" y="575.0">Template v.3.0</text>
            <a href="https://github.com/swhitty/SwiftDraw">
                <text fill="#505050" text-anchor="end" x="785.0" y="590.0">https://github.com/swhitty/SwiftDraw</text>
            </a>
        </g>
    </g>
    <g id="Guides" stroke="rgb(39, 170, 225)" stroke-width="0.5">
        <path id="Capline-S" d="M18,76 l800,0" />
        <path id="H-reference" d="M85,145.755 L87.685,145.755 L113.369,79.287 L114.052,79.287 L114.052,76 L112.148,76 L85,145.755 Z M95.693,121.536 L130.996,121.536 L130.263,119.313 L96.474,119.313 L95.693,121.536 Z M139.15,145.755 L141.787,145.755 L114.638,76 L113.466,76 L113.466,79.287 L139.15,145.755 Z" stroke="none" transform="translate(0,0)" />
        <path id="Baseline-S" d="M18,146 l800,0" />
        <path id="left-margin-Ultralight-S" d="M223.296,56 l0,110" />
        <path id="right-margin-Ultralight-S" d="M306.704,56 l0,110" />
        <path id="left-margin-Regular-S" d="M423.296,56 l0,110" />
        <path id="right-margin-Regular-S" d="M506.704,56 l0,110" />
        <path id="left-margin-Black-S" d="M623.296,56 l0,110" />
        <path id="right-margin-Black-S" d="M706.704,56 l0,110" />
        <path id="Capline-M" d="M18,276 l800,0" />
        <path id="Baseline-M" d="M18,346 l800,0" />
        <path id="Capline-L" d="M18,476 l800,0" />
        <path id="Baseline-L" d="M18,546 l800,0" />
    </g>
    <g id="Symbols">
        <g id="Ultralight-S" transform="translate(0,0)">
            <path d="M243.75,122.537 L257.509,114.816 L257.74,114.143 L257.509,113.771 L256.837,113.771 L254.535,113.63 L246.672,113.417 L239.855,113.134 L233.249,112.78 L231.585,112.426 L230.027,110.371 L230.186,109.344 L231.585,108.406 L233.586,108.583 L238.013,108.884 L244.653,109.344 L249.47,109.628 L256.606,110.371 L257.74,110.371 L257.899,109.911 L257.509,109.628 L257.208,109.344 L250.338,104.687 L242.9,99.764 L239.005,96.931 L236.897,95.497 L235.835,94.151 L235.374,91.211 L237.287,89.104 L239.855,89.281 L240.51,89.458 L243.113,91.459 L248.673,95.762 L255.933,101.11 L256.996,101.995 L257.421,101.694 L257.474,101.482 L256.996,100.685 L253.047,93.549 L248.833,86.288 L246.956,83.278 L246.46,81.472 C246.283,80.728 246.159,80.108 246.159,79.347 L248.337,76.39 L249.541,76 L252.445,76.39 L253.667,77.452 L255.473,81.578 L258.395,88.077 L262.928,96.913 L264.256,99.534 L264.965,101.96 L265.23,102.704 L265.691,102.704 L265.691,102.279 L266.062,97.303 L266.753,91.194 L267.426,83.331 L267.656,81.118 L268.754,78.461 L270.932,77.027 L272.632,77.842 L274.031,79.843 L273.836,81.135 L273.004,86.536 L271.375,95.001 L270.312,100.667 L270.932,100.667 L271.641,99.959 L274.509,96.152 L279.326,90.131 L281.451,87.74 L283.93,85.102 L285.524,83.845 L288.534,83.845 L290.747,87.138 L289.756,90.538 L286.657,94.47 L284.089,97.799 L280.406,102.757 L278.104,106.723 L278.317,107.042 L278.865,106.989 L287.188,105.218 L291.686,104.404 L297.052,103.483 L299.477,104.616 L299.743,105.767 L298.787,108.122 L293.049,109.539 L286.321,110.885 L276.298,113.258 L276.174,113.346 L276.315,113.523 L280.831,113.948 L282.761,114.055 L287.489,114.055 L296.29,114.71 L298.592,116.233 L299.973,118.092 L299.743,119.509 L296.201,121.315 L291.421,120.182 L280.264,117.525 L276.439,116.569 L275.908,116.569 L275.908,116.888 L279.096,120.005 L284.939,125.282 L292.253,132.081 L292.625,133.764 L291.686,135.092 L290.694,134.95 L284.266,130.116 L281.787,127.938 L276.174,123.21 L275.802,123.21 L275.802,123.706 L277.095,125.6 L283.93,135.871 L284.284,139.023 L283.788,140.05 L282.017,140.67 L280.07,140.316 L276.068,134.702 L271.942,128.38 L268.612,122.714 L268.205,122.944 L266.24,144.105 L265.319,145.186 L263.194,146 L261.423,144.654 L260.484,142.476 L261.423,138.173 L262.556,132.56 L263.477,128.097 L264.309,122.555 L264.805,120.713 L264.77,120.589 L264.363,120.642 L260.183,126.379 L253.826,134.968 L248.797,140.351 L247.593,140.829 L245.503,139.749 L245.698,137.819 L246.867,136.101 L253.826,127.247 L258.023,121.758 L260.732,118.588 L260.715,118.127 L260.555,118.127 L242.068,130.134 L238.774,130.559 L237.358,129.23 L237.535,127.052 L238.208,126.344 L243.768,122.519 L243.75,122.537 Z" />
        </g>
        <g id="Regular-S" transform="translate(0,0)">
            <path d="M443.75,122.537 L457.509,114.816 L457.74,114.143 L457.509,113.771 L456.837,113.771 L454.535,113.63 L446.672,113.417 L439.855,113.134 L433.249,112.78 L431.585,112.426 L430.027,110.371 L430.186,109.344 L431.585,108.406 L433.586,108.583 L438.013,108.884 L444.653,109.344 L449.47,109.628 L456.606,110.371 L457.74,110.371 L457.899,109.911 L457.509,109.628 L457.208,109.344 L450.338,104.687 L442.9,99.764 L439.005,96.931 L436.897,95.497 L435.835,94.151 L435.374,91.211 L437.287,89.104 L439.855,89.281 L440.51,89.458 L443.113,91.459 L448.673,95.762 L455.933,101.11 L456.996,101.995 L457.421,101.694 L457.474,101.482 L456.996,100.685 L453.047,93.549 L448.833,86.288 L446.956,83.278 L446.46,81.472 C446.283,80.728 446.159,80.108 446.159,79.347 L448.337,76.39 L449.541,76 L452.445,76.39 L453.667,77.452 L455.473,81.578 L458.395,88.077 L462.928,96.913 L464.256,99.534 L464.965,101.96 L465.23,102.704 L465.691,102.704 L465.691,102.279 L466.062,97.303 L466.753,91.194 L467.426,83.331 L467.656,81.118 L468.754,78.461 L470.932,77.027 L472.632,77.842 L474.031,79.843 L473.836,81.135 L473.004,86.536 L471.375,95.001 L470.312,100.667 L470.932,100.667 L471.641,99.959 L474.509,96.152 L479.326,90.131 L481.451,87.74 L483.93,85.102 L485.524,83.845 L488.534,83.845 L490.747,87.138 L489.756,90.538 L486.657,94.47 L484.089,97.799 L480.406,102.757 L478.104,106.723 L478.317,107.042 L478.865,106.989 L487.188,105.218 L491.686,104.404 L497.052,103.483 L499.477,104.616 L499.743,105.767 L498.787,108.122 L493.049,109.539 L486.321,110.885 L476.298,113.258 L476.174,113.346 L476.315,113.523 L480.831,113.948 L482.761,114.055 L487.489,114.055 L496.29,114.71 L498.592,116.233 L499.973,118.092 L499.743,119.509 L496.201,121.315 L491.421,120.182 L480.264,117.525 L476.439,116.569 L475.908,116.569 L475.908,116.888 L479.096,120.005 L484.939,125.282 L492.253,132.081 L492.625,133.764 L491.686,135.092 L490.694,134.95 L484.266,130.116 L481.787,127.938 L476.174,123.21 L475.802,123.21 L475.802,123.706 L477.095,125.6 L483.93,135.871 L484.284,139.023 L483.788,140.05 L482.017,140.67 L480.07,140.316 L476.068,134.702 L471.942,128.38 L468.612,122.714 L468.205,122.944 L466.24,144.105 L465.319,145.186 L463.194,146 L461.423,144.654 L460.484,142.476 L461.423,138.173 L462.556,132.56 L463.477,128.097 L464.309,122.555 L464.805,120.713 L464.77,120.589 L464.363,120.642 L460.183,126.379 L453.826,134.968 L448.797,140.351 L447.593,140.829 L445.503,139.749 L445.698,137.819 L446.867,136.101 L453.826,127.247 L458.023,121.758 L460.732,118.588 L460.715,118.127 L460.555,118.127 L442.068,130.134 L438.774,130.559 L437.358,129.23 L437.535,127.052 L438.208,126.344 L443.768,122.519 L443.75,122.537 Z" />
        </g>
        <g id="Black-S" transform="translate(0,0)">
            <path d="M643.75,122.537 L657.51,114.816 L657.74,114.143 L657.51,113.771 L656.837,113.771 L654.535,113.63 L646.672,113.417 L639.855,113.134 L633.249,112.78 L631.585,112.426 L630.027,110.371 L630.186,109.344 L631.585,108.406 L633.586,108.583 L638.013,108.884 L644.654,109.344 L649.47,109.628 L656.606,110.371 L657.74,110.371 L657.899,109.911 L657.51,109.628 L657.208,109.344 L650.338,104.687 L642.9,99.764 L639.005,96.931 L636.897,95.497 L635.835,94.151 L635.374,91.211 L637.287,89.104 L639.855,89.281 L640.51,89.458 L643.113,91.459 L648.673,95.762 L655.934,101.11 L656.996,101.995 L657.421,101.694 L657.474,101.482 L656.996,100.685 L653.047,93.549 L648.833,86.288 L646.956,83.278 L646.46,81.472 C646.283,80.728 646.159,80.108 646.159,79.347 L648.337,76.39 L649.541,76 L652.445,76.39 L653.667,77.452 L655.473,81.578 L658.395,88.077 L662.928,96.913 L664.256,99.534 L664.965,101.96 L665.23,102.704 L665.691,102.704 L665.691,102.279 L666.062,97.303 L666.753,91.194 L667.426,83.331 L667.656,81.118 L668.754,78.461 L670.932,77.027 L672.632,77.842 L674.031,79.843 L673.836,81.135 L673.004,86.536 L671.375,95.001 L670.312,100.667 L670.932,100.667 L671.641,99.959 L674.509,96.152 L679.326,90.131 L681.451,87.74 L683.93,85.102 L685.524,83.845 L688.534,83.845 L690.748,87.138 L689.756,90.538 L686.657,94.47 L684.089,97.799 L680.406,102.757 L678.104,106.723 L678.317,107.042 L678.865,106.989 L687.188,105.218 L691.686,104.404 L697.052,103.483 L699.477,104.616 L699.743,105.767 L698.787,108.122 L693.049,109.539 L686.321,110.885 L676.298,113.258 L676.174,113.346 L676.315,113.523 L680.831,113.948 L682.761,114.055 L687.489,114.055 L696.29,114.71 L698.592,116.233 L699.973,118.092 L699.743,119.509 L696.201,121.315 L691.421,120.182 L680.264,117.525 L676.439,116.569 L675.908,116.569 L675.908,116.888 L679.096,120.005 L684.939,125.282 L692.253,132.081 L692.625,133.764 L691.686,135.092 L690.694,134.95 L684.266,130.116 L681.787,127.938 L676.174,123.21 L675.802,123.21 L675.802,123.706 L677.095,125.6 L683.93,135.871 L684.284,139.023 L683.788,140.05 L682.018,140.67 L680.07,140.316 L676.068,134.702 L671.942,128.38 L668.613,122.714 L668.205,122.944 L666.24,144.105 L665.319,145.186 L663.194,146 L661.423,144.654 L660.484,142.476 L661.423,138.173 L662.556,132.56 L663.477,128.097 L664.309,122.555 L664.805,120.713 L664.77,120.589 L664.363,120.642 L660.183,126.379 L653.826,134.968 L648.797,140.351 L647.593,140.829 L645.503,139.749 L645.698,137.819 L646.867,136.101 L653.826,127.247 L658.023,121.758 L660.732,118.588 L660.715,118.127 L660.555,118.127 L642.068,130.134 L638.774,130.559 L637.358,129.23 L637.535,127.052 L638.208,126.344 L643.768,122.519 L643.75,122.537 Z" />
        </g>
    </g>
</svg>